<svg width="1246" height="426" viewBox="0 0 1246 426" fill="none" xmlns="http://www.w3.org/2000/svg">
<path d="M302.83 167.102C122.948 167.102 29.9536 132.258 -52.0934 101.515C-74.8055 93.0053 -77.4251 78.0633 -57.9421 68.1423C-38.4618 58.22 -4.25544 57.0769 18.4567 65.5874C96.0474 94.6608 163.057 119.769 302.83 119.769C442.608 119.769 509.623 94.6596 587.219 65.5874C669.271 34.8444 762.271 0 942.155 0C1122.03 0 1215.03 34.8421 1297.09 65.5851C1319.8 74.0932 1322.42 89.0364 1302.94 98.9575C1283.46 108.88 1249.26 110.026 1226.54 101.515C1148.95 72.4413 1081.93 47.3333 942.155 47.3333C802.375 47.3333 735.362 72.4425 657.766 101.515C575.714 132.258 482.714 167.102 302.83 167.102ZM657.766 230.964C735.362 201.892 802.377 176.783 942.155 176.783C1081.94 176.783 1148.95 201.892 1226.54 230.964C1249.26 239.474 1283.46 238.33 1302.94 228.409C1322.42 218.487 1319.81 203.546 1297.09 195.037C1215.04 164.295 1122.04 129.45 942.155 129.45C762.271 129.45 669.271 164.294 587.219 195.037C509.623 224.109 442.608 249.218 302.83 249.218C163.054 249.218 96.0474 224.11 18.4567 195.037C-4.25544 186.528 -38.4591 187.67 -57.9421 197.592C-77.4251 207.513 -74.8055 222.455 -52.0934 230.964C29.9563 261.706 122.95 296.552 302.83 296.552C482.714 296.55 575.714 261.706 657.766 230.964ZM657.766 360.413C735.362 331.34 802.377 306.231 942.155 306.231C1081.94 306.231 1148.95 331.34 1226.54 360.413C1249.26 368.922 1283.46 367.779 1302.94 357.858C1322.42 347.936 1319.81 332.995 1297.09 324.485C1215.04 293.744 1122.04 258.898 942.155 258.898C762.271 258.898 669.271 293.742 587.219 324.485C509.623 353.558 442.608 378.667 302.83 378.667C163.062 378.667 96.0501 353.559 18.4594 324.488C-4.25273 315.981 -38.4591 317.121 -57.9421 327.041C-77.4224 336.962 -74.8028 351.904 -52.0907 360.414C29.959 391.157 122.956 426 302.83 426C482.714 426 575.714 391.156 657.766 360.413Z" fill="url(#paint0_linear_421_2900)"/>
<defs>
<linearGradient id="paint0_linear_421_2900" x1="680.743" y1="426" x2="669.598" y2="-1.22866" gradientUnits="userSpaceOnUse">
<stop stop-color="#0074FF"/>
<stop offset="0.508068" stop-color="#FF00E5"/>
<stop offset="1" stop-color="#FED500"/>
</linearGradient>
</defs>
</svg>
